# xmcd CD database file
#
# Track frame offsets:
#	150
#	19661
#	37397
#	53855
#	66815
#	85110
#	99965
#	118096
#	134928
#	149018
#	158836
#	174040
#	190621
#	203543
#	214549
#	230407
#	243456
#	260134
#	278098
#	295641
#	307518
#	323033
#	338931
#
# Disc length: 4745 seconds
#
# Revision: 1
# Processed by: cddbd v1.5.2PL0 Copyright (c) Steve Scherf et al.
# Submitted via: CDex 2.06
#
DISCID=4b128717
DTITLE=Various Artist - Let`s Dance - CD 2
DYEAR=1900
DGENRE=Dance
TTITLE0=Robbie Williams - She`s The One
TTITLE1=Nick Cave and The Bad Seeds and Kylie Minogue - Where 
TTITLE2=Michael Buble - I Got It Easy
TTITLE3=Sam Smith - Stay With Me
TTITLE4=Kate Winslet - What If
TTITLE5=Norah Jones - Came Away With Me
TTITLE6=Hozier - Take Me To Church
TTITLE7=Onerepublic - Love Runs Out
TTITLE8=Meghan Trainor - All About That Bass
TTITLE9=Emiliana Torrini - Jungle Drum
TTITLE10=Mika - Boum Boum Boum
TTITLE11=Annett Louisan - Das Rezept
TTITLE12=Tom Jones - She`s A Lady
TTITLE13=Marvin Gaye and Tammi Terrell - Ain`t No Mountain Hi
TTITLE14=Annie Lennox - I Put A Spell On You
TTITLE15=The Monkees - Daydream Believer
TTITLE16=Gloria Estefan and Miami Sound Machine - Bad Boy
TTITLE17=Tina Turner - Private Dancer
TTITLE18=Elton John - Crocodile Rock
TTITLE19=The BossHoss - LIke Ice In The Sunshine
TTITLE20=Boney M. - Daddy Cool
TTITLE21=ABBA - Mamma Mia
TTITLE22=Andrea Berg - Du Hast Mich Tausendmal Belogen
EXTD=
EXTT0=
EXTT1=
EXTT2=
EXTT3=
EXTT4=
EXTT5=
EXTT6=
EXTT7=
EXTT8=
EXTT9=
EXTT10=
EXTT11=
EXTT12=
EXTT13=
EXTT14=
EXTT15=
EXTT16=
EXTT17=
EXTT18=
EXTT19=
EXTT20=
EXTT21=
EXTT22=
PLAYORDER=
